<svg xmlns="http://www.w3.org/2000/svg" version="1.1" xmlns:xlink="http://www.w3.org/1999/xlink" xmlns:svgjs="http://svgjs.dev/svgjs" viewBox="0 0 800 800"><defs><linearGradient x1="50%" y1="0%" x2="50%" y2="100%" id="vvvortex-grad"><stop stop-color="hsl(162, 100%, 58%)" stop-opacity="1" offset="0%"></stop><stop stop-color="hsl(270, 73%, 53%)" stop-opacity="1" offset="100%"></stop></linearGradient></defs><g stroke="url(#vvvortex-grad)" fill="none" stroke-linecap="round"><circle r="440" cx="400" cy="400" stroke-width="10" stroke-dasharray="51 48" stroke-dashoffset="25" transform="rotate(185, 400, 400)" opacity="1.00"></circle><circle r="420" cx="400" cy="400" stroke-width="9" stroke-dasharray="33 24" stroke-dashoffset="25" transform="rotate(345, 400, 400)" opacity="0.95"></circle><circle r="400" cx="400" cy="400" stroke-width="9" stroke-dasharray="14 16" stroke-dashoffset="25" transform="rotate(200, 400, 400)" opacity="0.91"></circle><circle r="380" cx="400" cy="400" stroke-width="9" stroke-dasharray="35 44" stroke-dashoffset="25" transform="rotate(10, 400, 400)" opacity="0.86"></circle><circle r="360" cx="400" cy="400" stroke-width="8" stroke-dasharray="40 33" stroke-dashoffset="25" transform="rotate(223, 400, 400)" opacity="0.82"></circle><circle r="340" cx="400" cy="400" stroke-width="8" stroke-dasharray="12 45" stroke-dashoffset="25" transform="rotate(43, 400, 400)" opacity="0.77"></circle><circle r="320" cx="400" cy="400" stroke-width="8" stroke-dasharray="25 50" stroke-dashoffset="25" transform="rotate(193, 400, 400)" opacity="0.73"></circle><circle r="300" cx="400" cy="400" stroke-width="8" stroke-dasharray="13 39" stroke-dashoffset="25" transform="rotate(214, 400, 400)" opacity="0.68"></circle><circle r="280" cx="400" cy="400" stroke-width="7" stroke-dasharray="44 25" stroke-dashoffset="25" transform="rotate(112, 400, 400)" opacity="0.64"></circle><circle r="260" cx="400" cy="400" stroke-width="7" stroke-dasharray="42 41" stroke-dashoffset="25" transform="rotate(94, 400, 400)" opacity="0.59"></circle><circle r="240" cx="400" cy="400" stroke-width="7" stroke-dasharray="39 36" stroke-dashoffset="25" transform="rotate(342, 400, 400)" opacity="0.55"></circle><circle r="220" cx="400" cy="400" stroke-width="6" stroke-dasharray="18 37" stroke-dashoffset="25" transform="rotate(28, 400, 400)" opacity="0.50"></circle><circle r="200" cx="400" cy="400" stroke-width="6" stroke-dasharray="22 47" stroke-dashoffset="25" transform="rotate(260, 400, 400)" opacity="0.46"></circle><circle r="180" cx="400" cy="400" stroke-width="6" stroke-dasharray="20 22" stroke-dashoffset="25" transform="rotate(113, 400, 400)" opacity="0.41"></circle><circle r="160" cx="400" cy="400" stroke-width="6" stroke-dasharray="15 44" stroke-dashoffset="25" transform="rotate(266, 400, 400)" opacity="0.37"></circle><circle r="140" cx="400" cy="400" stroke-width="5" stroke-dasharray="19 47" stroke-dashoffset="25" transform="rotate(279, 400, 400)" opacity="0.32"></circle><circle r="120" cx="400" cy="400" stroke-width="5" stroke-dasharray="54 52" stroke-dashoffset="25" transform="rotate(259, 400, 400)" opacity="0.28"></circle><circle r="100" cx="400" cy="400" stroke-width="5" stroke-dasharray="46 18" stroke-dashoffset="25" transform="rotate(238, 400, 400)" opacity="0.23"></circle><circle r="80" cx="400" cy="400" stroke-width="4" stroke-dasharray="31 53" stroke-dashoffset="25" transform="rotate(260, 400, 400)" opacity="0.19"></circle><circle r="60" cx="400" cy="400" stroke-width="4" stroke-dasharray="47 27" stroke-dashoffset="25" transform="rotate(162, 400, 400)" opacity="0.14"></circle><circle r="40" cx="400" cy="400" stroke-width="4" stroke-dasharray="46 26" stroke-dashoffset="25" transform="rotate(123, 400, 400)" opacity="0.10"></circle><circle r="20" cx="400" cy="400" stroke-width="4" stroke-dasharray="43 19" stroke-dashoffset="25" transform="rotate(93, 400, 400)" opacity="0.05"></circle></g></svg>